<svg width="513" height="513" viewBox="0 0 513 513" fill="none" xmlns="http://www.w3.org/2000/svg">
<circle cx="256.5" cy="256.5" r="256.5" fill="#DC9393"/>
<path d="M266.852 178.832C266.852 170.043 269.358 156.566 274.371 138.402C258.681 138.793 246.669 139.249 238.336 139.77C235.797 144.392 233.486 148.786 231.402 152.953L225.348 164.965C217.34 180.72 210.146 191.104 203.766 196.117C198.883 200.023 193.707 201.977 188.238 201.977C184.072 201.977 180.914 200.609 178.766 197.875C177.984 196.768 177.529 195.727 177.398 194.75C177.268 193.708 177.496 193.025 178.082 192.699C185.569 189.9 191.656 185.635 196.344 179.906C200.445 174.763 204.547 168.48 208.648 161.059L219.684 141.332L213.531 142.211C209.625 142.927 207.672 142.309 207.672 140.355C207.672 138.402 208.844 136.547 211.188 134.789C215.289 131.729 219.293 129.711 223.199 128.734L227.398 127.758C238.076 110.115 246.214 97.7773 251.812 90.7461C257.477 83.7148 262.62 77.8555 267.242 73.168C271.93 68.4805 276.845 64.3464 281.988 60.7656C293.251 53.0182 304.352 49.1445 315.289 49.1445C318.609 49.1445 320.855 49.8281 322.027 51.1953C323.98 53.3438 324.599 55.6549 323.883 58.1289C323.167 60.5378 321.995 64.0208 320.367 68.5781C309.951 96.9635 303.603 114.542 301.324 121.312C302.366 121.247 303.31 121.215 304.156 121.215H306.305C313.596 121.215 317.503 121.931 318.023 123.363C318.154 123.819 318.219 124.665 318.219 125.902C318.219 127.074 317.828 128.441 317.047 130.004C316.331 131.566 315.126 132.901 313.434 134.008C309.983 136.352 304.189 137.719 296.051 138.109C291.624 153.409 289.085 163.988 288.434 169.848C287.848 175.707 288.043 179.678 289.02 181.762C290.061 183.78 291.493 184.789 293.316 184.789C295.204 184.789 296.734 184.626 297.906 184.301C299.078 183.91 300.12 183.487 301.031 183.031L303.57 181.859C304.221 181.469 304.872 181.273 305.523 181.273C306.24 181.273 306.826 181.729 307.281 182.641C307.737 183.487 307.965 184.626 307.965 186.059C307.965 187.491 307.346 189.216 306.109 191.234C304.938 193.188 303.375 194.945 301.422 196.508C296.865 200.154 291.721 201.977 285.992 201.977C277.203 201.977 271.344 198.07 268.414 190.258C267.372 187.523 266.852 185.082 266.852 182.934V178.832ZM247.32 124.34C258.909 122.842 269.651 121.964 279.547 121.703C281.37 116.104 283.323 110.57 285.406 105.102L291.461 89.4766C293.544 84.5286 295.595 79.8411 297.613 75.4141L303.277 63.4023C289.736 66.918 276.357 78.6042 263.141 98.4609C260.341 102.628 257.607 106.924 254.938 111.352L247.32 124.34ZM203.57 409.984L203.668 407.152C204.384 387.686 209.299 369.294 218.414 351.977C226.812 336.156 237.392 323.363 250.152 313.598C262.783 303.962 275.087 299.145 287.066 299.145C296.181 299.145 303.375 302.302 308.648 308.617C313.141 314.086 315.387 320.792 315.387 328.734C315.387 338.24 311.904 347.615 304.938 356.859C300.901 362.198 296.604 366.039 292.047 368.383C289.898 369.555 287.88 370.141 285.992 370.141C284.169 370.141 282.477 369.75 280.914 368.969C279.352 368.188 277.984 367.211 276.812 366.039C274.404 363.5 273.199 361.221 273.199 359.203C273.199 357.185 273.72 355.785 274.762 355.004C285.439 347.322 292.698 339.411 296.539 331.273C298.036 328.148 298.785 325.089 298.785 322.094C298.785 315.779 295.79 312.621 289.801 312.621C280.426 312.621 270.758 317.732 260.797 327.953C251.487 337.393 243.674 349.242 237.359 363.5C230.784 378.148 227.301 391.592 226.91 403.832L226.812 407.543C226.812 422.191 229.905 431.794 236.09 436.352C238.303 437.979 240.94 438.793 244 438.793C247.125 438.793 250.055 438.402 252.789 437.621C255.523 436.84 258.258 435.766 260.992 434.398C265.419 432.12 271.083 428.181 277.984 422.582C280.068 420.954 281.793 421.182 283.16 423.266C284.332 424.958 284.918 426.911 284.918 429.125C284.918 432.836 284.397 435.375 283.355 436.742C282.379 438.044 280.654 439.607 278.18 441.43C275.771 443.253 272.809 444.945 269.293 446.508C261.09 450.154 253.049 451.977 245.172 451.977C237.294 451.977 230.947 451.033 226.129 449.145C221.311 447.191 217.242 444.424 213.922 440.844C207.021 433.292 203.57 423.005 203.57 409.984Z" fill="white"/>
</svg>
